<svg fill="#fff" height="48" viewBox="0 0 24 24" width="48" xmlns="http://www.w3.org/2000/svg">
    <path d="M0 0h24v24H0z" fill="none"/>
    <path d="M18 2H6c-1.1 0-2 .9-2 2v16c0 1.1.9 2 2 2h12c1.1 0 2-.9 2-2V4c0-1.1-.9-2-2-2zM6 4h5v8l-2.5-1.5L6 12V4z"/>
    <line stroke="#000" y2="10" x2="19" y1="1" x1="19" stroke-width="4"/>
    <line stroke="#000" y2="5" x2="23" y1="5" x1="14" stroke-width="4"/>
    <line stroke="#fff" y2="9" x2="19" y1="1" x1="19" stroke-width="2"/>
    <line stroke="#fff" y2="5" x2="23" y1="5" x1="15" stroke-width="2"/>
</svg>