<svg fill="#fff" width="24" height="24" xmlns="http://www.w3.org/2000/svg">
    <path fill="none" d="m0,2.87499l24,0l0,24l-24,0l0,-24z"/>
    <path d="m3.9,14.87499c0,-1.71 1.39,-3.1 3.1,-3.1l4,0l0,-1.9l-4,0c-2.76,0 -5,2.24 -5,5s2.24,5 5,5l4,0l0,-1.9l-4,0c-1.71,0 -3.1,-1.39 -3.1,-3.1zm4.1,1l8,0l0,-2l-8,0l0,2zm9,-6l-4,0l0,1.9l4,0c1.71,0 3.1,1.39 3.1,3.1s-1.39,3.1 -3.1,3.1l-4,0l0,1.9l4,0c2.76,0 5,-2.24 5,-5s-2.24,-5 -5,-5z"/>
    <line stroke="#fff" y2="9" x2="19" y1="1" x1="19" stroke-width="2"/>
    <line stroke="#fff" y2="5" x2="23" y1="5" x1="15" stroke-width="2"/>
</svg>